<svg width="593" height="533" viewBox="0 0 593 533" fill="none" xmlns="http://www.w3.org/2000/svg">
<path d="M386.099 58.5222C405.113 69.7686 411.411 94.2998 400.164 113.314L163.949 512.687C152.703 531.701 128.172 537.998 109.157 526.752L19.6427 473.807C0.628625 462.561 -5.66862 438.03 5.57739 419.015L241.792 19.6428C253.039 0.62847 277.57 -5.66863 296.584 5.57749L386.099 58.5222ZM482.46 114.582C580.932 172.824 620.828 287.568 571.571 370.87C522.314 454.171 402.557 474.485 304.086 416.242C298.149 412.731 295.18 410.975 291.348 406.949C283.149 398.332 278.659 381.704 281.407 370.131C282.69 364.723 285.067 360.466 289.821 351.951L408.796 138.848C417.622 123.037 422.036 115.132 430.185 109.759C436.363 105.686 447.025 102.807 454.414 103.217C464.159 103.757 470.26 107.365 482.46 114.582Z" fill="white" fill-opacity="0.8" style="fill:white;fill-opacity:0.8;"/>
</svg>
